<svg xmlns="http://www.w3.org/2000/svg" viewBox="0 0 55 55" role="img" aria-label="Código QR Cultúra">
  <rect width="55" height="55" fill="#f7dfaa"/>
  <g fill="#4b371c">
    <rect x="1" y="1" width="17" height="17"/>
    <rect x="4" y="4" width="11" height="11" fill="#f7dfaa"/>
    <rect x="7" y="7" width="5" height="5"/>
    <rect x="37" y="1" width="17" height="17"/>
    <rect x="40" y="4" width="11" height="11" fill="#f7dfaa"/>
    <rect x="43" y="7" width="5" height="5"/>
    <rect x="1" y="37" width="17" height="17"/>
    <rect x="4" y="40" width="11" height="11" fill="#f7dfaa"/>
    <rect x="7" y="43" width="5" height="5"/>
    <rect x="22" y="1" width="4" height="4"/>
    <rect x="30" y="1" width="3" height="7"/>
    <rect x="21" y="8" width="9" height="3"/>
    <rect x="33" y="8" width="3" height="10"/>
    <rect x="22" y="14" width="4" height="4"/>
    <rect x="28" y="15" width="4" height="3"/>
    <rect x="1" y="22" width="4" height="4"/>
    <rect x="8" y="21" width="6" height="3"/>
    <rect x="18" y="21" width="4" height="4"/>
    <rect x="25" y="21" width="8" height="4"/>
    <rect x="38" y="21" width="3" height="9"/>
    <rect x="44" y="22" width="4" height="4"/>
    <rect x="51" y="21" width="3" height="10"/>
    <rect x="4" y="29" width="7" height="3"/>
    <rect x="14" y="29" width="4" height="7"/>
    <rect x="22" y="29" width="4" height="4"/>
    <rect x="30" y="28" width="3" height="11"/>
    <rect x="35" y="33" width="8" height="4"/>
    <rect x="47" y="34" width="4" height="3"/>
    <rect x="22" y="38" width="4" height="4"/>
    <rect x="27" y="43" width="9" height="3"/>
    <rect x="39" y="40" width="4" height="4"/>
    <rect x="47" y="40" width="7" height="3"/>
    <rect x="22" y="49" width="7" height="4"/>
    <rect x="33" y="50" width="4" height="4"/>
    <rect x="42" y="48" width="3" height="6"/>
    <rect x="49" y="47" width="4" height="4"/>
  </g>
</svg>
